<?xml version="1.0" encoding="UTF-8"?>
<svg id="Layer_2" xmlns="http://www.w3.org/2000/svg" viewBox="0 0 953.42 305.17">
  <defs>
    <style>
      .cls-1 {
        letter-spacing: -.01em;
      }

      .cls-1, .cls-2, .cls-3, .cls-4, .cls-5, .cls-6 {
        isolation: isolate;
      }

      .cls-1, .cls-5 {
        font-family: ArialNova-Light, 'Arial Nova';
        font-size: 47.48px;
        font-weight: 300;
      }

      .cls-1, .cls-5, .cls-6 {
        fill: #b7b3ad;
      }

      .cls-2, .cls-4 {
        font-family: Arial-BoldMT, Arial;
        font-size: 171.21px;
        font-weight: 700;
      }

      .cls-2, .cls-4, .cls-7 {
        fill: #415946;
      }

      .cls-4 {
        letter-spacing: -.03em;
      }

      .cls-6 {
        font-family: ArialMT, Arial;
        font-size: 169px;
      }
    </style>
  </defs>
  <g id="Layer_1-2">
    <g>
      <g>
        <path class="cls-7" d="M224.82,258.92c-5.07,6.68-15.84,2.6-15.06-5.75,2.46-26.3-2.36-47.09-5.94-58.24-.41-1.27-.8-2.45-1.18-3.47,7.67-14.8,5.12-43.29-.89-56.6-7.54-16.65-27.15-24.03-43.83-16.49-16.65,7.58-24.03,27.18-16.49,43.83,6.37,14.01,27.95,36.23,44.53,38.49,2.59,15.16,5.48,53.64-21.25,93.21-5.6,8.29-15.95,12.15-25.6,9.49-1.04-.29-2.05-.58-3.07-.87-4.68-1.31-9.64-1.32-14.33-.03-8,2.2-15.68,5.22-36.67-1.11C52.04,291.45-10.44,225.36,1.49,147.38c7.41-48.38,30.06-69.89,51.27-75.16,9.34-2.32,16.98,7.53,12.56,16.09-24.18,46.77-17.39,88.01-14.87,99.11l-.83.32c-5.89,2.29-8.98,8.56-6.84,13.94l17.7,45.33c.6,1.53,2.45,2.26,4.14,1.59l.38-.16c2.55-.99,3.85-3.66,2.96-5.95l-11.56-29.54c-.7-1.78.32-3.82,2.29-4.58,1.94-.76,4.07.06,4.77,1.85l11.59,29.6c1.05,2.67,4.3,3.95,7.26,2.77,2.93-1.15,4.49-4.27,3.41-6.97l-11.56-29.6c-.7-1.78.32-3.82,2.26-4.58,1.97-.76,4.11.06,4.81,1.85l11.52,29.51c.92,2.32,3.69,3.37,6.24,2.39l.38-.13c1.69-.67,2.55-2.45,1.94-4.01l-17.7-45.3c-2.1-5.41-8.59-7.93-14.52-5.6l-1.27.51c-.51-11.72.49-45.65,25.08-79.16,5.15-7.02,14.18-10.22,22.53-7.76,7.93,2.34,13.19,2.53,13.19,2.53h.38s21.1-.8,42.37-17.89c21.3-17.13,72.83-8.98,84.77,69.01,6.64,43.43-9.78,83.15-31.34,111.54h.02Z"/>
        <path class="cls-7" d="M171.25.08s-26.48-2.67-42.69,23.81c-13.42,21.94.73,48.87.73,48.87,0,0,30.4-1.21,42.69-23.81,14.82-27.27-.73-48.87-.73-48.87Z"/>
      </g>
      <path class="cls-7" d="M159.1,125.26c-10.46,6.04-15.86,16.1-12.19,29.84-1.18-15.57,27.34-34.51,41.03-27.02-5.62-4.37-16.37-10.02-28.84-2.82Z"/>
    </g>
    <g class="cls-3">
      <text class="cls-2" transform="translate(289.47 203.02)"><tspan x="0" y="0">E</tspan></text>
      <text class="cls-4" transform="translate(393.71 203.02)"><tspan x="0" y="0">k</tspan></text>
      <text class="cls-2" transform="translate(488.91 203.02)"><tspan x="0" y="0">o</tspan></text>
      <text class="cls-6" transform="translate(586.83 203.02)"><tspan x="0" y="0">F</tspan></text>
      <text class="cls-6" transform="translate(675.56 203.02)"><tspan x="0" y="0">o</tspan></text>
      <text class="cls-6" transform="translate(767.83 203.02)"><tspan x="0" y="0">o</tspan></text>
      <text class="cls-6" transform="translate(859.6 203.02)"><tspan x="0" y="0">d</tspan></text>
    </g>
    <g class="cls-3">
      <text class="cls-5" transform="translate(304.88 264.13)"><tspan x="0" y="0">Mais</tspan></text>
      <text class="cls-5" transform="translate(403.82 264.13)"><tspan x="0" y="0">ta</tspan></text>
      <text class="cls-5" transform="translate(443.7 264.13)"><tspan x="0" y="0">s Jū</tspan></text>
      <text class="cls-5" transform="translate(527.58 264.12)"><tspan x="0" y="0">s</tspan></text>
      <text class="cls-5" transform="translate(552.32 264.12)"><tspan x="0" y="0">ų </tspan></text>
      <text class="cls-5" transform="translate(591.35 264.7)"><tspan x="0" y="0">sv</tspan></text>
      <text class="cls-5" transform="translate(636.5 264.7)"><tspan x="0" y="0">ei</tspan></text>
      <text class="cls-1" transform="translate(672.06 264.7)"><tspan x="0" y="0">k</tspan></text>
      <text class="cls-5" transform="translate(695.32 264.7)"><tspan x="0" y="0">a</tspan></text>
      <text class="cls-5" transform="translate(718.77 264.7)"><tspan x="0" y="0">t</tspan></text>
      <text class="cls-5" transform="translate(734.87 264.7)"><tspan x="0" y="0">ai.</tspan></text>
    </g>
  </g>
</svg>